Sherlock Holmes and his sidekick Dr. Watson join forces to outwit and bring down their fiercest adversary, Professor Moriarty.


Director: Guy Ritchie
Writers: Michele Mulroney, Kieran Mulroney
Stars:Robert Downey Jr., Jude Law and Jared Harris 

  http://www.imdb.com/title/tt1515091/
 
http://www.prikachi.com/images/419/4649419B.jpg 
http://www.prikachi.com/images/420/4649420g.jpg 
http://www.prikachi.com/images/421/4649421L.jpg

Format : AVI
Format/Info : Audio Video Interleave
File size : 699 MiB
Duration : 2h 3mn
Overall bit rate : 792 Kbps
Writing application : transcode-1.1.5

Video
ID : 0
Format : MPEG-4 Visual
Format profile : Advanced Simple@L5
Format settings, BVOP : 1
Format settings, QPel : No
Format settings, GMC : No warppoints
Format settings, Matrix : Default (H.263)
Codec ID : XVID
Codec ID/Hint : XviD
Duration : 2h 3mn
Bit rate : 654 Kbps
Width : 624 pixels
Height : 288 pixels
Display aspect ratio : 2.2:1
Frame rate : 25.000 fps
Color space : YUV
Chroma subsampling : 4:2:0
Bit depth : 8 bits
Scan type : Progressive
Compression mode : Lossy
Bits/(Pixel*Frame) : 0.146
Stream size : 577 MiB (83%)
Writing library : XviD 1.2.1 (UTC 2008-12-04)

Audio
ID : 1
Format : MPEG Audio
Format version : Version 1
Format profile : Layer 3
Mode : Joint stereo
Mode extension : MS Stereo
Codec ID : 55
Codec ID/Hint : MP3
Duration : 2h 3mn
Bit rate mode : Constant
Bit rate : 128 Kbps
Channel(s) : 2 channels
Sampling rate : 48.0 KHz
Compression mode : Lossy
Stream size : 113 MiB (16%)
Alignment : Split accross interleaves
Interleave, duration : 40 ms (1.00 video frame)
Writing library : LAME3.98.2
